<?xml version="1.0" encoding="UTF-8"?>
<svg width="48px" height="48px" viewBox="0 0 48 48" version="1.1" xmlns="http://www.w3.org/2000/svg" xmlns:xlink="http://www.w3.org/1999/xlink">
    <!-- Generator: Sketch 54 (76480) - https://sketchapp.com -->
    <title>ui</title>
    <desc>Created with Sketch.</desc>
    <g id="Page-1" stroke="none" stroke-width="1" fill="none" fill-rule="evenodd">
        <g id="home" transform="translate(-787.000000, -2062.000000)" fill="#DDDDDD" fill-rule="nonzero">
            <g id="ui" transform="translate(787.000000, 2062.000000)">
                <path d="M23.997,8.64515625 C15.5303437,8.64515625 8.64215625,15.5333438 8.64215625,24 C8.64215625,32.4666562 15.5303437,39.35475 23.997,39.35475 C32.4636562,39.35475 39.3518438,32.4666562 39.3518438,24 C39.3518438,15.53325 32.4636562,8.64515625 23.997,8.64515625 Z M25.5255,24.8157188 C25.5255,27.4127813 23.9672812,28.909125 21.3084375,28.909125 C18.6495938,28.909125 17.091375,27.4127813 17.091375,24.8157188 L17.091375,20.0545313 L20.0099063,20.0545313 L20.0099063,24.7291875 C20.0099063,26.052375 20.5169062,26.5470938 21.3331875,26.5470938 C22.149375,26.5470938 22.656375,26.0524688 22.656375,24.7291875 L22.656375,20.0545313 L25.5255,20.0545313 L25.5255,24.8157188 Z M30.397875,28.7113125 L27.4793438,28.7113125 L27.4793438,20.0545313 L30.397875,20.0545313 L30.397875,28.7113125 Z" id="Shape"></path>
                <rect id="Rectangle" x="22.59375" y="0" width="2.8125" height="4.7270625"></rect>
                <rect id="Rectangle" x="22.59375" y="43.2728437" width="2.8125" height="4.72715625"></rect>
                <rect id="Rectangle" x="43.2728437" y="22.59375" width="4.72715625" height="2.8125"></rect>
                <rect id="Rectangle" x="0" y="22.59375" width="4.7270625" height="2.8125"></rect>
                <polygon id="Rectangle" transform="translate(35.132123, 5.446457) rotate(-59.036243) translate(-35.132123, -5.446457) " points="32.7685251 4.04024215 37.4957204 4.04024215 37.4957204 6.8526716 32.7685251 6.8526716"></polygon>
                <polygon id="Rectangle" transform="translate(12.867751, 42.550705) rotate(-59.036243) translate(-12.867751, -42.550705) " points="10.5041537 41.1444904 15.231349 41.1444904 15.231349 43.9569199 10.5041537 43.9569199"></polygon>
                <polygon id="Rectangle" transform="translate(42.555848, 35.132720) rotate(-59.031331) translate(-42.555848, -35.132720) " points="41.1494675 32.7690012 43.9622292 32.7690012 43.9622292 37.4964397 41.1494675 37.4964397"></polygon>
                <polygon id="Rectangle" transform="translate(5.447748, 12.866203) rotate(-59.036243) translate(-5.447748, -12.866203) " points="4.04143945 10.5026524 6.85405641 10.5026524 6.85405641 15.2297539 4.04143945 15.2297539"></polygon>
                <polygon id="Rectangle" transform="translate(42.924547, 13.514465) rotate(-28.987265) translate(-42.924547, -13.514465) " points="40.5610902 12.1082596 45.2880044 12.1082596 45.2880044 14.9206714 40.5610902 14.9206714"></polygon>
                <polygon id="Rectangle" transform="translate(5.073636, 34.483892) rotate(-28.987265) translate(-5.073636, -34.483892) " points="2.71017922 33.0776866 7.4370934 33.0776866 7.4370934 35.8900983 2.71017922 35.8900983"></polygon>
                <polygon id="Rectangle" transform="translate(34.483808, 42.924791) rotate(-28.987265) translate(-34.483808, -42.924791) " points="33.0775549 40.5612866 35.8900604 40.5612866 35.8900604 45.2882946 33.0775549 45.2882946"></polygon>
                <polygon id="Rectangle" transform="translate(13.514383, 5.073775) rotate(-28.987265) translate(-13.514383, -5.073775) " points="12.1081303 2.71027106 14.9206358 2.71027106 14.9206358 7.43727899 12.1081303 7.43727899"></polygon>
            </g>
        </g>
    </g>
</svg>