<?xml version="1.0" encoding="UTF-8"?>
<svg width="46px" height="46px" viewBox="0 0 46 46" version="1.1" xmlns="http://www.w3.org/2000/svg" xmlns:xlink="http://www.w3.org/1999/xlink">
    <!-- Generator: Sketch 54 (76480) - https://sketchapp.com -->
    <title>ux</title>
    <desc>Created with Sketch.</desc>
    <g id="Page-1" stroke="none" stroke-width="1" fill="none" fill-rule="evenodd">
        <g id="home" transform="translate(-1166.000000, -2063.000000)" fill="#DDDDDD" fill-rule="nonzero">
            <g id="ux" transform="translate(1166.000000, 2063.000000)">
                <path d="M9.53822114,24.349475 L0.00998578209,24.349475 C0.333938947,29.993601 2.68500588,35.2547587 6.71521355,39.2849664 C10.7843748,43.3541276 16.108236,45.7126614 21.8143458,46.00009 L21.8143458,36.4764427 C15.3531849,35.9126508 10.1788405,30.7885952 9.53822114,24.349475 Z" id="Path"></path>
                <path d="M24.5131159,36.4438764 L24.5131159,45.9800284 C30.0951681,45.6203604 35.2936223,43.2760406 39.2848764,39.2848764 C43.3150841,35.2546687 45.6660611,29.993511 45.9901042,24.349385 L36.4617789,24.349385 C35.8320449,30.6794713 30.8209815,35.7385743 24.5131159,36.4438764 Z" id="Path"></path>
                <path d="M21.8142558,9.52373726 L21.8142558,0 C16.1081461,0.287428593 10.7843748,2.64596237 6.71512359,6.71521355 C2.68500588,10.7454212 0.333938947,16.006489 0.00998578209,21.650615 L9.5383111,21.650615 C10.1788405,15.2114948 15.3531849,10.0874392 21.8142558,9.52373726 Z" id="Path"></path>
                <path d="M36.4617789,21.650615 L45.9901042,21.650615 C45.666151,16.006579 43.3150841,10.7454212 39.2848764,6.71530351 C35.2936223,2.72395942 30.095258,0.379639644 24.5131159,0.0199715642 L24.5131159,9.55621354 C30.8208915,10.2615156 35.8320449,15.3206187 36.4617789,21.650615 Z" id="Path"></path>
                <path d="M20.3912369,21.650615 L20.3912369,23.4431978 C20.3912369,23.8482967 20.3241253,24.1437319 20.2017769,24.349475 C20.0397554,24.6219699 19.7805749,24.7368514 19.4496047,24.7368514 C19.1186345,24.7368514 18.8594539,24.6219699 18.6974324,24.349475 C18.575084,24.1437319 18.5078824,23.8482967 18.5078824,23.4431978 L18.5078824,21.650615 L18.5078824,20.116403 L16.4308398,20.116403 L16.4308398,21.650525 L16.4308398,23.5046418 C16.4308398,23.8079037 16.4612469,24.0895748 16.5195423,24.349385 C16.8164169,25.6731759 17.8501702,26.4177914 19.4319721,26.4177914 C20.4901052,26.4177914 21.3030018,26.0845721 21.8142558,25.4677926 C22.2172856,24.981638 22.4330145,24.3193377 22.4330145,23.5046418 L22.4330145,20.116403 L21.8142558,20.116403 L20.3912369,20.116403 L20.3912369,21.650615 Z" id="Path"></path>
                <polygon id="Path" points="27.6433437 20.116403 26.6321708 21.650615 26.6224549 21.6653687 26.6124691 21.650615 25.5751173 20.116403 24.5131159 20.116403 23.2428524 20.116403 25.3902454 23.170343 24.5452323 24.349475 24.5131159 24.3941861 23.1636859 26.2770008 24.5131159 26.2770008 25.5311259 26.2770008 26.5696472 24.631236 27.6345274 26.2770008 30.0107837 26.2770008 28.636974 24.349475 27.7401428 23.0910865 28.7757854 21.650615 29.8787195 20.116403"></polygon>
            </g>
        </g>
    </g>
</svg>