<?xml version="1.0" encoding="UTF-8"?>
<svg width="40px" height="37px" viewBox="0 0 40 37" version="1.1" xmlns="http://www.w3.org/2000/svg" xmlns:xlink="http://www.w3.org/1999/xlink">
    <!-- Generator: Sketch 54 (76480) - https://sketchapp.com -->
    <title>code</title>
    <desc>Created with Sketch.</desc>
    <g id="Page-1" stroke="none" stroke-width="1" fill="none" fill-rule="evenodd">
        <g id="home" transform="translate(-1169.000000, -2295.000000)" fill-rule="nonzero">
            <g id="code" transform="translate(1169.000000, 2295.000000)">
                <path d="M0,21.6260388 L0,9.22437673 L39.5567867,9.22437673 L39.5567867,21.6260388 L36.5217391,21.6260388 C35.3207708,21.6260388 34.2350331,22.1085762 33.4207299,22.8808615 C33.3494062,22.510349 33.1828833,22.1641274 32.879075,21.9338255 L26.8089799,17.3216371 C26.1406624,16.8141939 25.1906925,16.9492798 24.6853571,17.6294238 C24.1815392,18.3080305 24.3178128,19.2718753 24.9891654,19.780856 L29.4394556,23.1634349 L24.9891654,26.5460139 C24.8932579,26.6186814 23.7478309,27.9463767 23.5531832,28.2891136 L22.0371769,30.9495263 C21.4280429,32.0169917 21.2665783,33.2601302 21.5807058,34.4506898 C21.8627629,35.5159003 22.5348236,36.3797119 23.4168084,37 C24.197625,37 2.03105384,37 1.51752379,37 C0.678737806,37 0,36.312374 0,35.4626039 L0,21.6260388 L0,9.22437673 L39.5567867,9.22437673 L39.5567867,35.4626039 C39.5567867,36.312374 38.8780489,37 38.0392629,37 C37.5257329,37 15.3591617,37 16.1399783,37 C17.0219631,36.3797119 17.6940238,35.5159003 17.9760809,34.4506898 C18.2902084,33.2601302 18.1287438,32.0169917 17.5196098,30.9495263 L16.0036035,28.2891136 C15.8089558,27.9463767 14.6635288,26.6186814 14.5676213,26.5460139 L10.1173311,23.1634349 L14.5676213,19.780856 C15.2389739,19.2718753 15.3752475,18.3080305 14.8714296,17.6294238 C14.3660942,16.9492798 13.4161243,16.8141939 12.7478068,17.3216371 L6.67771167,21.9338255 C6.37390341,22.1641274 6.20738046,22.510349 6.13605685,22.8808615 C5.32175358,22.1085762 4.2360159,21.6260388 3.03504757,21.6260388 L0,21.6260388 Z" id="Combined-Shape" fill="#DDDDDD"></path>
                <path d="M16.7717648,27.2906205 L19.8068124,18.0662438 C20.070558,17.2614681 20.9226982,16.8246426 21.7259742,17.0948144 C22.5203473,17.3620138 22.95011,18.2328975 22.6848469,19.039108 L19.6497993,28.2634847 C19.4378518,28.9075512 18.8465234,29.3144487 18.2107821,29.3144487 C17.1758308,29.3144487 16.4442832,28.2860332 16.7717648,27.2906205 Z M5.16018788,21.9352548 L11.230283,17.3230665 C11.900118,16.8111136 12.8500879,16.9492742 13.3539058,17.6308532 C13.8577237,18.3094598 13.7214501,19.2733047 13.0500976,19.7822853 L8.5998073,23.1648642 L13.0500976,26.5474432 C13.7214501,27.0564238 13.8577237,28.0202687 13.3539058,28.6988753 C12.8533253,29.377482 11.9025461,29.5172825 11.230283,29.006662 L5.16018788,24.3944737 C4.77787306,24.1047257 4.55257136,23.6483241 4.55257136,23.1648642 C4.55257136,22.6814044 4.77787306,22.2250028 5.16018788,21.9352548 Z M34.2957723,21.9352548 L28.2256771,17.3230665 C27.5558421,16.8111136 26.6058723,16.9492742 26.1020544,17.6308532 C25.5982365,18.3094598 25.7345101,19.2733047 26.4058626,19.7822853 L30.8561529,23.1648642 L26.4058626,26.5474432 C25.7345101,27.0564238 25.5982365,28.0202687 26.1020544,28.6988753 C26.6026349,29.377482 27.5534141,29.5172825 28.2256771,29.006662 L34.2957723,24.3944737 C34.6780871,24.1047257 34.9033888,23.6483241 34.9033888,23.1648642 C34.9033888,22.6814044 34.6780871,22.2250028 34.2957723,21.9352548 Z" id="Shape" fill="#FFFFFF"></path>
                <path d="M0,6.14958449 L30.451644,6.14958449 L30.451644,0 L1.51752379,0 C0.678737806,0 0,0.687626039 0,1.53739612 L0,6.14958449 Z" id="Path" fill="#DDDDDD"></path>
                <path d="M39.5567867,1.53739612 C39.5567867,0.687626039 38.8780489,0 38.0392629,0 L33.4866916,0 L33.4866916,6.14958449 L39.5567867,6.14958449 L39.5567867,1.53739612 Z" id="Path" fill="#DDDDDD"></path>
            </g>
        </g>
    </g>
</svg>