<?xml version="1.0" encoding="UTF-8"?>
<svg width="24px" height="24px" viewBox="0 0 24 24" version="1.1" xmlns="http://www.w3.org/2000/svg" xmlns:xlink="http://www.w3.org/1999/xlink">
    <!-- Generator: Sketch 54 (76480) - https://sketchapp.com -->
    <title>linkedin</title>
    <desc>Created with Sketch.</desc>
    <g id="Page-1" stroke="none" stroke-width="1" fill="none" fill-rule="evenodd">
        <g id="home" transform="translate(-1795.000000, -2983.000000)" fill-rule="nonzero">
            <g id="linkedin" transform="translate(1795.000000, 2983.000000)">
                <rect id="Rectangle" fill="#B3B3B3" x="0" y="0" width="23.9858421" height="23.9858421"></rect>
                <g id="Group" transform="translate(3.578947, 3.631579)" fill="#FFFFFF">
                    <path d="M2.06605263,0.0113157895 C3.16463158,0.0122105263 4.07068421,0.919578947 4.06831579,2.02363158 C4.06568421,3.17968421 3.10631579,4.051 2.05252632,4.02589474 C0.983684211,4.04752632 0.0443684211,3.15478947 0.0445789474,2.016 C0.0445789474,0.911526316 0.954157895,0.0104736842 2.06605263,0.0113157895 Z" id="Path"></path>
                    <path d="M3.23321053,16.709 L0.879473684,16.709 C0.574,16.709 0.326368421,16.4613684 0.326368421,16.1558947 L0.326368421,6.11473684 C0.326368421,5.80926316 0.574,5.56163158 0.879473684,5.56163158 L3.23321053,5.56163158 C3.53868421,5.56163158 3.78631579,5.80926316 3.78631579,6.11473684 L3.78631579,16.1559474 C3.78626316,16.4613684 3.53868421,16.709 3.23321053,16.709 Z" id="Path"></path>
                    <path d="M16.7833684,9.08852632 C16.7833684,6.98347368 15.0768947,5.27694737 12.9717895,5.27694737 L12.3681053,5.27694737 C11.2164211,5.27694737 10.1989474,5.85157895 9.58694737,6.72989474 C9.52021053,6.82563158 9.45842105,6.92505263 9.40168421,7.02768421 C9.38205263,7.02473684 9.37042105,7.02321053 9.37015789,7.02373684 L9.37015789,5.79121053 C9.37015789,5.66442105 9.26736842,5.56157895 9.14052632,5.56157895 L6.20394737,5.56157895 C6.07715789,5.56157895 5.97431579,5.66436842 5.97431579,5.79121053 L5.97431579,16.4794737 C5.97431579,16.6062632 6.07705263,16.7090526 6.20384211,16.7091053 L9.20442105,16.7098421 C9.33126316,16.7098947 9.43410526,16.6070526 9.43410526,16.4802105 L9.43410526,10.3053158 C9.43410526,9.23794737 10.2854211,8.35168421 11.3527368,8.33963158 C11.8975789,8.33347368 12.3915263,8.55178947 12.7475263,8.908 C13.0988421,9.25910526 13.3160526,9.74457895 13.3160526,10.2805789 L13.3160526,16.481 C13.3160526,16.6077895 13.4188421,16.7105789 13.5455789,16.7106316 L16.5535789,16.7113684 C16.6804211,16.7114211 16.7832632,16.6085789 16.7832632,16.4817368 L16.7832632,9.08852632 L16.7833684,9.08852632 Z" id="Path"></path>
                </g>
            </g>
        </g>
    </g>
</svg>