<svg width="60" height="60" viewBox="0 0 60 60" fill="none" xmlns="http://www.w3.org/2000/svg">
<g clip-path="url(#clip0_1390_5107)">
<path d="M20.5915 60V34.2091L0 0H10.0275L29.2985 32.1458V60H20.5915ZM31.6506 28.9271C30.9904 28.0743 30.3714 27.0151 29.7937 25.7497C29.216 24.4567 28.8721 23.0949 28.762 21.6644C28.6795 20.2063 29.0371 18.762 29.8349 17.3315L39.4911 0H49.271L31.6506 28.9271Z" fill="black"/>
<path fill-rule="evenodd" clip-rule="evenodd" d="M45.6908 48.5526C44.7308 50.215 44.405 52.2437 44.9411 54.2444C46.0132 58.2454 50.1257 60.6198 54.1267 59.5477C58.1277 58.4757 60.5021 54.3632 59.43 50.3622C58.358 46.3614 54.246 43.9871 50.2453 45.0586L52.1863 52.3027L45.6908 48.5526Z" fill="black"/>
</g>
<defs>
<clipPath id="clip0_1390_5107">
<rect width="60" height="60" fill="white"/>
</clipPath>
</defs>
</svg>
